# Blender 3.4.1
# www.blender.org
mtllib Rock.mtl
o Rock
v 1.277681 0.343751 -2.193282
v 2.471012 1.588719 -0.188433
v -2.609311 0.011213 0.319745
v -2.437724 0.466578 2.027839
v -1.253044 2.731996 -0.101100
v -1.646494 2.118884 -1.206530
v -1.864782 1.270070 -1.994804
v 2.224907 0.398916 -1.363622
v 2.733565 0.405103 1.315722
v 2.272638 -0.026437 -0.377017
v 2.224270 1.779780 0.895989
v -2.094855 0.103889 2.301370
v -0.073528 -0.727433 1.503928
v 1.203039 0.121068 2.725389
v 2.178359 0.373114 2.260790
v -2.463813 1.058700 1.016154
v -2.855226 0.861478 -0.378572
v -2.634104 0.684310 -1.471646
v -1.458110 0.752410 -2.429957
v -0.573961 2.038595 -1.822551
v -0.966773 0.312484 -2.539399
v 0.482607 0.574710 -2.755633
v -0.092852 0.900620 -2.745537
v 1.421854 2.047391 -0.858305
v 2.727564 0.697928 -0.184876
v 2.862817 0.769620 0.766862
v 2.332866 0.708025 2.193841
v 1.295653 0.569831 2.959425
v 0.945708 1.025239 2.890393
v 0.020226 0.336269 3.235112
v -0.939733 -0.082073 2.865237
v -0.154410 1.362858 3.000551
v -1.052251 0.478065 3.080451
v -2.090607 -0.023954 -1.567673
v -0.592550 -0.163234 -2.170125
v 1.638923 -0.262911 -1.354272
v -1.805404 -0.408790 -0.377306
v 0.764378 -0.734016 -0.402487
v -0.243017 -0.676043 0.668405
v 1.543838 -0.035657 0.648995
v 0.102172 3.058706 -0.088723
v -0.398046 3.102297 0.567736
vn -0.9794 0.1946 -0.0540
vn -0.7665 -0.6379 0.0747
vn -0.8568 0.0785 0.5096
vn -0.7658 0.5639 0.3091
vn -0.5183 0.8537 -0.0508
vn -0.8814 -0.0529 -0.4694
vn -0.5207 0.7596 -0.3897
vn -0.5318 0.4761 -0.7004
vn -0.4334 0.0699 -0.8985
vn -0.5230 -0.7210 -0.4546
vn -0.0006 0.2846 -0.9586
vn 0.3227 -0.0774 -0.9433
vn 0.4880 0.7117 -0.5052
vn 0.8057 -0.0891 -0.5855
vn 0.2109 0.9668 -0.1441
vn -0.0216 0.7469 -0.6646
vn -0.0708 -0.8387 -0.5400
vn 0.5276 -0.2633 -0.8077
vn 0.7686 0.5847 -0.2597
vn 0.9967 0.0494 0.0640
vn 0.9602 -0.1229 -0.2509
vn 0.8263 -0.5014 0.2565
vn 0.7518 0.2045 0.6269
vn 0.5575 -0.6627 0.5000
vn 0.4533 -0.7923 -0.4083
vn 0.6431 -0.7637 -0.0567
vn 0.3780 -0.0612 0.9238
vn 0.3099 0.5603 0.7681
vn 0.1211 -0.3569 0.9262
vn -0.2296 -0.7012 0.6750
vn 0.0673 -0.9799 0.1878
vn -0.4225 0.1095 0.8997
vn -0.0831 0.6114 0.7869
vn 0.1798 -0.9836 -0.0131
vn 0.3413 -0.9215 0.1852
vn -0.0229 -0.9964 0.0816
vn -0.5559 -0.6392 0.5314
vn -0.2513 -0.3837 -0.8886
vn 0.6039 0.7460 0.2808
vn -0.0733 0.9516 0.2984
vn 0.0265 -0.6908 0.7226
vn -0.3796 -0.9226 -0.0692
vt 0.115195 0.598139
vt 0.099942 0.431944
vt 0.703017 0.856965
vt 0.055248 0.841078
vt 0.555195 0.152908
vt 0.398024 0.910431
vt 0.505356 0.319135
vt 0.680081 0.009136
vt 0.454408 0.789152
vt 0.504999 0.536470
vt 0.802869 0.291335
vt 0.693205 0.344280
vt 0.459956 0.620989
vt 0.875727 0.668951
vt 0.586434 0.382444
vt 0.038206 0.678939
vt 0.032302 0.352036
vt 0.824186 0.750086
vt 0.029774 0.098205
vt 0.827402 0.849759
vt 0.051593 0.239085
vt 0.683132 0.761604
vt 0.067868 0.925553
vt 0.405257 0.750738
vt 0.502159 0.133420
vt 0.961462 0.004195
vt 0.320456 0.129949
vt 0.967440 0.190000
vt 0.827402 0.545791
vt 0.210145 0.006749
vt 0.821475 0.645040
vt 0.105640 0.033148
vt 0.683373 0.096751
vt 0.452653 0.883418
vt 0.593938 0.197481
vt 0.935593 0.742779
vt 0.533352 0.298776
vt 0.443330 0.505996
vt 0.939357 0.626630
vt 0.827402 0.543233
vt 0.704531 0.438385
vt 0.504999 0.700569
vt 0.355005 0.681287
vt 0.997278 0.593640
vt 0.298128 0.529886
vt 0.998662 0.450267
vt 0.185670 0.528958
vt 0.197851 0.552524
vt 0.953577 0.491498
vt 0.273777 0.555652
vt 0.175193 0.796954
vt 0.002324 0.792219
vt 0.781058 0.867437
vt 0.000015 0.269018
vt 0.000000 0.875642
vt 0.000000 0.193971
vt 0.789074 0.796754
vt 0.787470 0.668146
vt 0.943515 0.225487
vt 0.792396 0.547439
vt 0.735771 0.524022
vt 0.325350 0.000000
vt 0.793414 0.438385
vt 0.898052 0.158230
vt 0.365415 0.536470
vt 0.355005 0.637529
vt 0.414798 0.044970
vt 0.882730 0.019540
vt 0.688831 0.459708
vt 0.459942 0.559029
vt 0.411669 0.621036
vt 0.992589 0.729615
vt 0.425408 0.468201
vt 0.275443 0.476454
vt 0.087537 0.342827
vt 0.432243 0.337158
vt 0.194141 0.271303
vt 0.298208 0.210001
vt 0.134665 0.174781
vt 0.586228 0.737996
vt 0.877206 0.357023
vt 0.316072 0.870675
vt 0.515019 0.636209
vt 0.898052 0.272484
s 1
f 17/34/1 3/6/2 4/9/3
f 16/33/4 5/11/5 17/35/1
f 18/37/6 6/12/7 7/15/8
f 5/11/5 6/12/7 17/35/1
f 7/14/8 19/39/9 18/36/6
f 18/36/6 19/39/9 34/72/10
f 19/39/9 23/49/11 22/46/12
f 24/51/13 8/16/14 22/48/12
f 5/11/5 41/81/15 20/41/16
f 35/74/17 22/47/12 1/2/18
f 2/4/19 26/55/20 25/52/21
f 9/18/22 27/58/23 15/31/24
f 1/2/18 8/17/14 36/75/25
f 2/4/19 25/52/21 8/16/14
f 26/56/20 9/19/22 10/21/26
f 28/60/27 29/61/28 30/63/29
f 30/62/29 31/67/30 13/27/31
f 33/71/32 32/70/33 4/9/3
f 32/68/33 16/33/4 4/8/3
f 36/75/25 38/77/34 35/74/17
f 10/21/26 40/79/35 38/77/34
f 39/78/36 12/25/37 3/7/2
f 19/39/9 21/44/38 34/72/10
f 9/19/22 15/32/24 40/79/35
f 41/80/15 29/61/28 11/22/39
f 11/22/39 29/61/28 27/58/23
f 41/80/15 42/83/40 29/61/28
f 41/81/15 5/11/5 42/84/40
f 42/84/40 16/33/4 32/68/33
f 17/35/1 18/37/6 3/5/2
f 17/35/1 6/12/7 18/37/6
f 4/8/3 16/33/4 17/35/1
f 7/14/8 20/40/16 19/39/9
f 19/39/9 20/40/16 23/49/11
f 21/44/38 19/39/9 22/46/12
f 6/12/7 20/41/16 7/15/8
f 6/13/7 5/10/5 20/42/16
f 41/82/15 24/51/13 20/43/16
f 24/51/13 41/82/15 2/4/19
f 24/51/13 2/4/19 8/16/14
f 1/1/18 22/48/12 8/16/14
f 21/45/38 22/47/12 35/74/17
f 9/18/22 26/57/20 27/58/23
f 2/3/19 11/22/39 26/57/20
f 11/22/39 27/58/23 26/57/20
f 25/53/21 26/57/20 10/20/26
f 27/58/23 29/61/28 28/60/27
f 30/63/29 29/61/28 32/69/33
f 30/65/29 33/71/32 31/66/30
f 13/26/31 14/28/41 28/59/27
f 34/73/10 35/74/17 37/76/42
f 35/74/17 38/77/34 37/76/42
f 38/77/34 40/79/35 39/78/36
f 40/79/35 10/21/26 9/19/22
f 1/2/18 36/75/25 35/74/17
f 39/78/36 13/27/31 12/25/37
f 29/61/28 42/83/40 32/69/33
f 41/82/15 11/23/39 2/4/19
f 42/84/40 5/11/5 16/33/4
f 20/43/16 24/51/13 22/48/12 23/50/11
f 3/6/2 12/24/37 4/9/3
f 8/17/14 25/54/21 10/21/26 36/75/25
f 33/71/32 4/9/3 12/24/37 31/66/30
f 3/7/2 18/38/6 34/73/10 37/76/42
f 30/64/29 13/26/31 28/59/27
f 33/71/32 30/65/29 32/70/33
f 15/31/24 27/58/23 28/60/27 14/29/41
f 13/27/31 31/67/30 12/25/37
f 40/79/35 14/30/41 13/27/31 39/78/36
f 35/74/17 34/73/10 21/45/38
f 10/21/26 38/77/34 36/75/25
f 39/78/36 37/76/42 38/77/34
f 39/78/36 3/7/2 37/76/42
f 40/79/35 15/32/24 14/30/41
