# Blender v3.0.0 OBJ File: ''
# www.blender.org
mtllib Tail_kite.mtl
o Tail_Cylinder
v 0.000000 -4.932919 -0.213967
v 0.000000 4.932919 -0.213967
v 0.125767 -4.932919 -0.173103
v 0.125767 4.932919 -0.173103
v 0.203495 -4.932919 -0.066119
v 0.203495 4.932919 -0.066119
v 0.203495 -4.932919 0.066119
v 0.203495 4.932919 0.066119
v 0.125767 -4.932919 0.173103
v 0.125767 4.932919 0.173103
v -0.000000 -4.932919 0.213967
v -0.000000 4.932919 0.213967
v -0.125767 -4.932919 0.173103
v -0.125767 4.932919 0.173103
v -0.203495 -4.932919 0.066120
v -0.203495 4.932919 0.066120
v -0.203495 -4.932919 -0.066120
v -0.203495 4.932919 -0.066120
v -0.125767 -4.932919 -0.173103
v -0.125767 4.932919 -0.173103
vt 1.000000 0.500000
vt 1.000000 1.000000
vt 0.900000 1.000000
vt 0.900000 0.500000
vt 0.800000 1.000000
vt 0.800000 0.500000
vt 0.700000 1.000000
vt 0.700000 0.500000
vt 0.600000 1.000000
vt 0.600000 0.500000
vt 0.500000 1.000000
vt 0.500000 0.500000
vt 0.400000 1.000000
vt 0.400000 0.500000
vt 0.300000 1.000000
vt 0.300000 0.500000
vt 0.200000 1.000000
vt 0.200000 0.500000
vt 0.391068 0.444164
vt 0.250000 0.490000
vt 0.108932 0.444164
vt 0.021746 0.324164
vt 0.021746 0.175836
vt 0.108932 0.055836
vt 0.250000 0.010000
vt 0.391068 0.055836
vt 0.478254 0.175836
vt 0.478254 0.324164
vt 0.100000 1.000000
vt 0.100000 0.500000
vt -0.000000 1.000000
vt -0.000000 0.500000
vt 0.750000 0.490000
vt 0.891068 0.444164
vt 0.978254 0.324164
vt 0.978254 0.175836
vt 0.891068 0.055836
vt 0.750000 0.010000
vt 0.608932 0.055836
vt 0.521746 0.175836
vt 0.521746 0.324164
vt 0.608932 0.444164
vn 0.3090 0.0000 -0.9511
vn 0.8090 0.0000 -0.5878
vn 1.0000 0.0000 0.0000
vn 0.8090 0.0000 0.5878
vn 0.3090 0.0000 0.9511
vn -0.3090 0.0000 0.9511
vn -0.8090 0.0000 0.5878
vn -1.0000 0.0000 0.0000
vn 0.0000 1.0000 0.0000
vn -0.8090 0.0000 -0.5878
vn -0.3090 0.0000 -0.9511
vn 0.0000 -1.0000 -0.0000
usemtl Material.001
s off
f 1/1/1 2/2/1 4/3/1 3/4/1
f 3/4/2 4/3/2 6/5/2 5/6/2
f 5/6/3 6/5/3 8/7/3 7/8/3
f 7/8/4 8/7/4 10/9/4 9/10/4
f 9/10/5 10/9/5 12/11/5 11/12/5
f 11/12/6 12/11/6 14/13/6 13/14/6
f 13/14/7 14/13/7 16/15/7 15/16/7
f 15/16/8 16/15/8 18/17/8 17/18/8
f 4/19/9 2/20/9 20/21/9 18/22/9 16/23/9 14/24/9 12/25/9 10/26/9 8/27/9 6/28/9
f 17/18/10 18/17/10 20/29/10 19/30/10
f 19/30/11 20/29/11 2/31/11 1/32/11
f 1/33/12 3/34/12 5/35/12 7/36/12 9/37/12 11/38/12 13/39/12 15/40/12 17/41/12 19/42/12
o tail_Cylinder.001
v -0.490462 -4.938435 -1.279079
v 0.490462 -4.938435 -1.279079
v -0.490462 -6.217514 0.000000
v 0.490462 -6.217514 0.000000
v -0.490462 -4.938435 1.279079
v 0.490462 -4.938435 1.279079
v -0.490462 -3.659356 -0.000000
v 0.490462 -3.659356 -0.000000
vt 1.000000 0.500000
vt 1.000000 1.000000
vt 0.750000 1.000000
vt 0.750000 0.500000
vt 0.500000 1.000000
vt 0.500000 0.500000
vt 0.490000 0.250000
vt 0.250000 0.490000
vt 0.010000 0.250000
vt 0.250000 0.010000
vt 0.250000 1.000000
vt 0.250000 0.500000
vt 0.000000 1.000000
vt 0.000000 0.500000
vt 0.750000 0.490000
vt 0.990000 0.250000
vt 0.750000 0.010000
vt 0.510000 0.250000
vn 0.0000 -0.7071 -0.7071
vn 0.0000 -0.7071 0.7071
vn 1.0000 0.0000 0.0000
vn 0.0000 0.7071 0.7071
vn 0.0000 0.7071 -0.7071
vn -1.0000 -0.0000 0.0000
usemtl kite
s off
f 21/43/13 22/44/13 24/45/13 23/46/13
f 23/46/14 24/45/14 26/47/14 25/48/14
f 24/49/15 22/50/15 28/51/15 26/52/15
f 25/48/16 26/47/16 28/53/16 27/54/16
f 27/54/17 28/53/17 22/55/17 21/56/17
f 21/57/18 23/58/18 25/59/18 27/60/18
